<svg width="434" height="96" viewBox="0 0 434 96" fill="none" xmlns="http://www.w3.org/2000/svg">
<path d="M74.0909 0.909088V94H63.1818L12.4545 20.9091H11.5455V94H0.272728V0.909088H11.1818L62.0909 74.1818H63V0.909088H74.0909ZM123.557 95.4545C117.254 95.4545 111.723 93.9545 106.966 90.9545C102.239 87.9545 98.5417 83.7576 95.875 78.3636C93.2386 72.9697 91.9205 66.6667 91.9205 59.4545C91.9205 52.1818 93.2386 45.8333 95.875 40.4091C98.5417 34.9848 102.239 30.7727 106.966 27.7727C111.723 24.7727 117.254 23.2727 123.557 23.2727C129.86 23.2727 135.375 24.7727 140.102 27.7727C144.86 30.7727 148.557 34.9848 151.193 40.4091C153.86 45.8333 155.193 52.1818 155.193 59.4545C155.193 66.6667 153.86 72.9697 151.193 78.3636C148.557 83.7576 144.86 87.9545 140.102 90.9545C135.375 93.9545 129.86 95.4545 123.557 95.4545ZM123.557 85.8182C128.345 85.8182 132.284 84.5909 135.375 82.1364C138.466 79.6818 140.754 76.4545 142.239 72.4545C143.723 68.4545 144.466 64.1212 144.466 59.4545C144.466 54.7879 143.723 50.4394 142.239 46.4091C140.754 42.3788 138.466 39.1212 135.375 36.6364C132.284 34.1515 128.345 32.9091 123.557 32.9091C118.769 32.9091 114.83 34.1515 111.739 36.6364C108.648 39.1212 106.36 42.3788 104.875 46.4091C103.39 50.4394 102.648 54.7879 102.648 59.4545C102.648 64.1212 103.39 68.4545 104.875 72.4545C106.36 76.4545 108.648 79.6818 111.739 82.1364C114.83 84.5909 118.769 85.8182 123.557 85.8182ZM201.932 24.1818V33.2727H165.75V24.1818H201.932ZM176.295 7.45454H187.023V74C187.023 77.0303 187.462 79.303 188.341 80.8182C189.25 82.303 190.402 83.303 191.795 83.8182C193.22 84.303 194.72 84.5455 196.295 84.5455C197.477 84.5455 198.447 84.4848 199.205 84.3636C199.962 84.2121 200.568 84.0909 201.023 84L203.205 93.6364C202.477 93.9091 201.462 94.1818 200.159 94.4545C198.856 94.7576 197.205 94.9091 195.205 94.9091C192.174 94.9091 189.205 94.2576 186.295 92.9545C183.417 91.6515 181.023 89.6667 179.114 87C177.235 84.3333 176.295 80.9697 176.295 76.9091V7.45454ZM246.591 95.4545C239.864 95.4545 234.061 93.9697 229.182 91C224.333 88 220.591 83.8182 217.955 78.4545C215.348 73.0606 214.045 66.7879 214.045 59.6364C214.045 52.4848 215.348 46.1818 217.955 40.7273C220.591 35.2424 224.258 30.9697 228.955 27.9091C233.682 24.8182 239.197 23.2727 245.5 23.2727C249.136 23.2727 252.727 23.8788 256.273 25.0909C259.818 26.303 263.045 28.2727 265.955 31C268.864 33.697 271.182 37.2727 272.909 41.7273C274.636 46.1818 275.5 51.6667 275.5 58.1818V62.7273H221.682V53.4545H264.591C264.591 49.5151 263.803 46 262.227 42.9091C260.682 39.8182 258.47 37.3788 255.591 35.5909C252.742 33.803 249.379 32.9091 245.5 32.9091C241.227 32.9091 237.53 33.9697 234.409 36.0909C231.318 38.1818 228.939 40.9091 227.273 44.2727C225.606 47.6364 224.773 51.2424 224.773 55.0909V61.2727C224.773 66.5455 225.682 71.0152 227.5 74.6818C229.348 78.3182 231.909 81.0909 235.182 83C238.455 84.8788 242.258 85.8182 246.591 85.8182C249.409 85.8182 251.955 85.4242 254.227 84.6364C256.53 83.8182 258.515 82.6061 260.182 81C261.848 79.3636 263.136 77.3333 264.045 74.9091L274.409 77.8182C273.318 81.3333 271.485 84.4242 268.909 87.0909C266.333 89.7273 263.152 91.7879 259.364 93.2727C255.576 94.7273 251.318 95.4545 246.591 95.4545ZM341.273 39.8182L331.636 42.5455C331.03 40.9394 330.136 39.3788 328.955 37.8636C327.803 36.3182 326.227 35.0455 324.227 34.0455C322.227 33.0455 319.667 32.5455 316.545 32.5455C312.273 32.5455 308.712 33.5303 305.864 35.5C303.045 37.4394 301.636 39.9091 301.636 42.9091C301.636 45.5758 302.606 47.6818 304.545 49.2273C306.485 50.7727 309.515 52.0606 313.636 53.0909L324 55.6364C330.242 57.1515 334.894 59.4697 337.955 62.5909C341.015 65.6818 342.545 69.6667 342.545 74.5455C342.545 78.5455 341.394 82.1212 339.091 85.2727C336.818 88.4242 333.636 90.9091 329.545 92.7273C325.455 94.5455 320.697 95.4545 315.273 95.4545C308.152 95.4545 302.258 93.9091 297.591 90.8182C292.924 87.7273 289.97 83.2121 288.727 77.2727L298.909 74.7273C299.879 78.4848 301.712 81.303 304.409 83.1818C307.136 85.0606 310.697 86 315.091 86C320.091 86 324.061 84.9394 327 82.8182C329.97 80.6667 331.455 78.0909 331.455 75.0909C331.455 72.6667 330.606 70.6364 328.909 69C327.212 67.3333 324.606 66.0909 321.091 65.2727L309.455 62.5455C303.061 61.0303 298.364 58.6818 295.364 55.5C292.394 52.2879 290.909 48.2727 290.909 43.4545C290.909 39.5151 292.015 36.0303 294.227 33C296.47 29.9697 299.515 27.5909 303.364 25.8636C307.242 24.1364 311.636 23.2727 316.545 23.2727C323.455 23.2727 328.879 24.7879 332.818 27.8182C336.788 30.8485 339.606 34.8485 341.273 39.8182Z" fill="black"/>
<path d="M392.341 86.5426V16.2301H404.273V86.5426H392.341ZM363.151 57.3523V45.4205H433.463V57.3523H363.151Z" fill="#3FF511"/>
</svg>
